<svg xmlns="http://www.w3.org/2000/svg" version="1.1" xmlns:xlink="http://www.w3.org/1999/xlink" xmlns:svgjs="http://svgjs.com/svgjs" width="1415" height="560" preserveAspectRatio="none" viewBox="0 0 1415 560"><g mask="url(&quot;#SvgjsMask1073&quot;)" fill="none"><rect width="1415" height="560" x="0" y="0" fill="rgba(211, 149, 0, 1)"></rect><path d="M696.22 599.63C808.12 560.25 762.39 230.53 991.92 228.51 1221.44 226.49 1431.69 362.07 1583.31 362.91" stroke="rgba(82, 1, 1, 1)" stroke-width="2"></path><path d="M401.72 595.19C512.9 592.91 609.97 444.38 820.17 444.29 1030.37 444.2 1029.39 514.29 1238.61 514.29 1447.84 514.29 1550.99 444.53 1657.06 444.29" stroke="rgba(82, 1, 1, 1)" stroke-width="2"></path><path d="M609.89 637.11C720.07 607.8 650.78 323.95 921.21 303.86 1191.64 283.77 1378.92 88.6 1543.85 85.46" stroke="rgba(82, 1, 1, 1)" stroke-width="2"></path><path d="M857.22 642.95C951.18 614.34 919.32 346.43 1114.53 346.09 1309.75 345.75 1492.95 522.75 1629.16 525.29" stroke="rgba(82, 1, 1, 1)" stroke-width="2"></path><path d="M669.84 671.95C838.98 625.46 896.44 158.13 1144.27 155 1392.1 151.87 1487.07 378.67 1618.7 384.6" stroke="rgba(82, 1, 1, 1)" stroke-width="2"></path></g><defs><mask id="SvgjsMask1073"><rect width="1415" height="560" fill="#ffffff"></rect></mask></defs></svg>